<svg width="22" height="22" viewBox="0 0 22 22" fill="none" xmlns="http://www.w3.org/2000/svg">
<path fill-rule="evenodd" clip-rule="evenodd" d="M10.8574 19.8567C7.47325 19.8567 4.58325 19.3301 4.58325 17.221C4.58325 15.112 7.45492 13.165 10.8574 13.165C14.2416 13.165 17.1316 15.0931 17.1316 17.2022C17.1316 19.3104 14.2599 19.8567 10.8574 19.8567Z" stroke="#F8F8F8" stroke-linecap="round" stroke-linejoin="round"/>
<path fill-rule="evenodd" clip-rule="evenodd" d="M10.8508 10.2425C13.0716 10.2425 14.8716 8.44245 14.8716 6.22162C14.8716 4.00078 13.0716 2.19995 10.8508 2.19995C8.62996 2.19995 6.82913 4.00078 6.82913 6.22162C6.82163 8.43495 8.60913 10.235 10.8225 10.2425C10.8325 10.2425 10.8416 10.2425 10.8508 10.2425Z" stroke="#F8F8F8" stroke-linecap="round" stroke-linejoin="round"/>
</svg>
