<svg width="22" height="22" viewBox="0 0 22 22" fill="none" xmlns="http://www.w3.org/2000/svg">
<path d="M8.3942 19.0404V16.2293C8.39418 15.5142 8.97711 14.9332 9.69934 14.9284H12.3449C13.0706 14.9284 13.6589 15.5108 13.6589 16.2293V16.2293V19.0492C13.6587 19.6562 14.1481 20.1524 14.7612 20.1666H16.5249C18.2831 20.1666 19.7084 18.7556 19.7084 17.015V17.015V9.018C19.699 8.33324 19.3743 7.69022 18.8266 7.27193L12.7947 2.46151C11.7379 1.62392 10.2358 1.62392 9.17905 2.46151L3.1736 7.28066C2.62382 7.69725 2.29852 8.34134 2.29175 9.02673V17.015C2.29175 18.7556 3.71705 20.1666 5.47525 20.1666H7.23896C7.86724 20.1666 8.37656 19.6624 8.37656 19.0404V19.0404" stroke="#F8F8F8" stroke-linecap="round" stroke-linejoin="round"/>
</svg>
