<svg width="34" height="34" viewBox="0 0 34 34" fill="none" xmlns="http://www.w3.org/2000/svg">
<path fill-rule="evenodd" clip-rule="evenodd" d="M23 13.8107C23 19.3335 18.5228 23.8107 13 23.8107C7.47715 23.8107 3 19.3335 3 13.8107C3 8.28781 7.47715 3.81065 13 3.81065C18.5228 3.81065 23 8.28781 23 13.8107ZM21.6789 23.4895C19.3775 25.5545 16.3354 26.8107 13 26.8107C5.8203 26.8107 0 20.9904 0 13.8107C0 6.63095 5.8203 0.810654 13 0.810654C20.1797 0.810654 26 6.63095 26 13.8107C26 16.5723 25.1388 19.1329 23.6704 21.2384L33.0607 30.6287C33.6464 31.2145 33.6464 32.1642 33.0607 32.75C32.4749 33.3358 31.5251 33.3358 30.9393 32.75L21.6789 23.4895Z" fill="#923FE3"/>
</svg>
