<svg width="24" height="24" viewBox="0 0 24 24" fill="none" xmlns="http://www.w3.org/2000/svg">
<path opacity="0.4" fill-rule="evenodd" clip-rule="evenodd" d="M5.46436 10.932C5.46436 10.5178 5.12857 10.182 4.71436 10.182C4.30014 10.182 3.96436 10.5178 3.96436 10.932C3.96436 15.183 7.21628 18.6735 11.3685 19.0518V21.1469C11.3685 21.5611 11.7043 21.8969 12.1185 21.8969C12.5328 21.8969 12.8685 21.5611 12.8685 21.1469V19.0518C17.0205 18.6731 20.272 15.1828 20.272 10.932C20.272 10.5178 19.9362 10.182 19.522 10.182C19.1078 10.182 18.772 10.5178 18.772 10.932C18.772 14.6073 15.7935 17.5858 12.1182 17.5858C8.44285 17.5858 5.46436 14.6073 5.46436 10.932Z" fill="#346AFF"/>
<path fill-rule="evenodd" clip-rule="evenodd" d="M12.2447 14.5844H11.9923C9.97132 14.5844 8.33228 12.9463 8.33228 10.9244V6.37393C8.33228 4.35298 9.97132 2.71393 11.9923 2.71393H12.2447C14.2656 2.71393 15.9047 4.35298 15.9047 6.37393V10.9244C15.9047 12.9463 14.2656 14.5844 12.2447 14.5844Z" fill="#346AFF" stroke="#130F26" stroke-width="1.5" stroke-linecap="round" stroke-linejoin="round"/>
</svg>
